<?xml version="1.0" encoding="utf-8"?>
<!-- Generator: Adobe Illustrator 25.2.3, SVG Export Plug-In . SVG Version: 6.00 Build 0)  -->
<svg version="1.1" id="Capa_1" xmlns="http://www.w3.org/2000/svg" xmlns:xlink="http://www.w3.org/1999/xlink" x="0px" y="0px"
	 viewBox="0 0 478.61 478.61" style="enable-background:new 0 0 478.61 478.61;" xml:space="preserve">
<style type="text/css">
	.st0{fill:#EAEAEA;}
</style>
<g id="XMLID_122_">
	<g>
		<path class="st0" d="M427.5,200.7c1.78-11.24,2.88-23.56,3.16-37.38c-0.11-59.25-28.47-80.21-33.92-90.04
			c8.04-44.89-1.33-65.31-5.69-72.3c-16.07-5.7-55.91,14.72-77.68,29.1c-35.49-10.39-110.49-9.38-138.62,2.69
			C122.86-4.39,95.41,1.28,95.41,1.28S77.66,33.1,90.72,79.65c-17.07,21.76-29.8,37.14-29.8,77.95c0,9.77,0.61,19.01,1.64,27.89
			c14.71,77.32,75.97,110.67,136.15,116.43c-9.06,6.88-19.93,19.9-21.43,34.99c-11.38,7.36-34.27,9.79-52.07,4.19
			c-24.94-7.88-34.49-57.27-71.83-50.22c-8.08,1.51-6.47,6.84,0.52,11.39c11.38,7.38,22.09,16.55,30.35,36.18
			c6.34,15.07,19.69,41.98,61.87,41.98c16.75,0,28.48-1.98,28.48-1.98s0.32,38.41,0.32,53.39c0,17.24-23.26,22.08-23.26,30.35
			c0,3.29,7.7,3.6,13.89,3.6c12.23,0,37.67-10.19,37.67-28.1c0-14.24,0.23-62.08,0.23-70.46c0-18.31,9.81-24.14,9.81-24.14
			s1.2,97.73-2.36,110.83c-4.18,15.41-11.74,13.22-11.74,20.08c0,10.23,30.59,2.5,40.74-19.9c7.85-17.49,4.33-113.33,4.33-113.33
			l8.18-0.18c0,0,0.09,43.89-0.19,63.94c-0.29,20.77-2.44,47.02,9.9,59.42c8.1,8.15,32.9,22.45,32.9,9.38
			c0-7.57-17.37-13.83-17.37-34.35v-94.53c10.55,0,12.73,31.07,12.73,31.07l3.8,57.73c0,0-2.53,21.07,22.76,29.86
			c8.92,3.13,28.02,3.98,28.91-1.27c0.9-5.26-22.99-13.04-23.22-29.34c-0.12-9.93,0.45-15.74,0.45-58.93
			c0-43.17-5.8-59.14-26.01-71.86C355.67,295.68,416.54,269.51,427.5,200.7z"/>
	</g>
</g>
</svg>
