<?xml version="1.0" encoding="utf-8"?>
<!-- Generator: Adobe Illustrator 25.2.3, SVG Export Plug-In . SVG Version: 6.00 Build 0)  -->
<svg version="1.1" id="Bold" xmlns="http://www.w3.org/2000/svg" xmlns:xlink="http://www.w3.org/1999/xlink" x="0px" y="0px"
	 viewBox="0 0 512 512" style="enable-background:new 0 0 512 512;" xml:space="preserve">
<style type="text/css">
	.st0{fill:#EAEAEA;}
</style>
<path class="st0" d="M511.87,512v-0.02H512V324.2c0-91.86-19.78-162.62-127.17-162.62c-51.63,0-86.27,28.33-100.42,55.19h-1.49
	v-46.61H181.1v341.82h106.03V342.72c0-44.57,8.45-87.66,63.64-87.66c54.38,0,55.19,50.86,55.19,90.52V512L511.87,512z"/>
<path class="st0" d="M8.45,170.18H114.6V512H8.45L8.45,170.18z"/>
<path class="st0" d="M61.48,0C27.54,0,0,27.54,0,61.48s27.54,62.06,61.48,62.06s61.48-28.12,61.48-62.06
	C122.94,27.54,95.4,0,61.48,0z"/>
</svg>
